<svg xmlns="http://www.w3.org/2000/svg" xmlns:xlink="http://www.w3.org/1999/xlink"> 
    <defs>
        <symbol viewBox="0 0 35 35" id="icon-eye">
            <path d="M17.4999 6.5625C10.2083 6.5625 3.98117 11.0979 1.45825 17.5C3.98117 23.9021 10.2083 28.4375 17.4999 28.4375C24.7916 28.4375 31.0187 23.9021 33.5416 17.5C31.0187 11.0979 24.7916 6.5625 17.4999 6.5625ZM17.4999 24.7917C13.4749 24.7917 10.2083 21.525 10.2083 17.5C10.2083 13.475 13.4749 10.2083 17.4999 10.2083C21.5249 10.2083 24.7916 13.475 24.7916 17.5C24.7916 21.525 21.5249 24.7917 17.4999 24.7917ZM17.4999 13.125C15.0791 13.125 13.1249 15.0792 13.1249 17.5C13.1249 19.9208 15.0791 21.875 17.4999 21.875C19.9208 21.875 21.8749 19.9208 21.8749 17.5C21.8749 15.0792 19.9208 13.125 17.4999 13.125Z" fill="black" fill-opacity="0.8"/>
        </symbol>
        <symbol viewBox="0 0 20 20" id="icon-a1">
            <path d="M9.52546 17.0001L8.73346 14.2461H4.28746L3.49546 17.0001H0.147461L4.52146 4.09411H8.44546L12.8735 17.0001H9.52546ZM7.29346 9.11611C7.23346 8.90011 7.14946 8.61211 7.04146 8.25211C6.94546 7.88011 6.84346 7.50211 6.73546 7.11811C6.63946 6.73411 6.56146 6.41011 6.50146 6.14611C6.45346 6.41011 6.37546 6.74011 6.26746 7.13611C6.17146 7.52011 6.07546 7.89811 5.97946 8.27011C5.88346 8.63011 5.80546 8.91211 5.74546 9.11611L4.98946 11.6901H8.04946L7.29346 9.11611Z" fill="black" fill-opacity="0.5"/>
            <path d="M18.13 1.80811V9.51211H15.862V5.94811C15.862 5.80411 15.868 5.60611 15.88 5.35411C15.892 5.09011 15.904 4.83811 15.916 4.59811C15.928 4.34611 15.94 4.17811 15.952 4.09411C15.88 4.20211 15.784 4.32211 15.664 4.45411C15.544 4.57411 15.436 4.67611 15.34 4.76011L14.638 5.31811L13.54 4.04011L16.348 1.80811H18.13Z" fill="black" fill-opacity="0.5"/>
        </symbol>
        <symbol viewBox="0 0 20 20" id="icon-viber">
            <path d="M16.075 8.42233C16.095 6.01233 14.0425 3.80316 11.5 3.49733C11.4451 3.49048 11.3903 3.48214 11.3358 3.47233C11.208 3.44786 11.0784 3.43393 10.9483 3.43066C10.4267 3.43066 10.2875 3.79733 10.2508 4.01483C10.215 4.22733 10.2492 4.4065 10.3517 4.54566C10.5242 4.77983 10.8283 4.8215 11.0725 4.85483C11.1433 4.86483 11.2108 4.874 11.2675 4.8865C13.5525 5.39733 14.3217 6.19983 14.6975 8.46566C14.7067 8.52066 14.7108 8.589 14.7158 8.6615C14.7325 8.93233 14.7658 9.49566 15.3717 9.49566C15.4217 9.49566 15.4767 9.4915 15.5333 9.48316C16.0967 9.39733 16.0792 8.88233 16.0708 8.63483C16.0683 8.56483 16.0658 8.499 16.0725 8.45483C16.0738 8.44377 16.0744 8.43263 16.0742 8.4215L16.075 8.42233Z" fill="black" fill-opacity="0.5"/>
            <path d="M10.7999 2.61333C10.8683 2.61833 10.9316 2.62333 10.9849 2.63083C14.7374 3.20833 16.4633 4.98583 16.9408 8.7675C16.9491 8.83167 16.9508 8.91 16.9516 8.9925C16.9566 9.28833 16.9666 9.90333 17.6266 9.91583H17.6466C17.8541 9.91583 18.0183 9.85333 18.1366 9.73C18.3416 9.51583 18.3283 9.19667 18.3158 8.94C18.3133 8.87667 18.3108 8.8175 18.3108 8.765C18.3591 4.89833 15.0108 1.39083 11.1474 1.26083C11.1308 1.26083 11.1158 1.26083 11.1008 1.26333C11.0856 1.26525 11.0702 1.26609 11.0549 1.26583C11.0158 1.26583 10.9691 1.2625 10.9183 1.25917C10.8583 1.255 10.7891 1.25 10.7183 1.25C10.1033 1.25 9.98659 1.6875 9.97159 1.94833C9.93743 2.55083 10.5199 2.59333 10.7999 2.61333ZM16.7599 13.655C16.6794 13.5938 16.5997 13.5316 16.5208 13.4683C16.1108 13.1383 15.6749 12.835 15.2541 12.5408L14.9916 12.3575C14.4516 11.9783 13.9666 11.7942 13.5083 11.7942C12.8899 11.7942 12.3516 12.1358 11.9066 12.8083C11.7099 13.1067 11.4708 13.2517 11.1766 13.2517C10.9723 13.2445 10.7718 13.1943 10.5883 13.1042C8.84659 12.3142 7.60159 11.1025 6.88993 9.50333C6.54576 8.73 6.65743 8.225 7.26243 7.81333C7.60659 7.58 8.24576 7.14583 8.20159 6.31333C8.14993 5.36917 6.06576 2.52667 5.18743 2.20417C4.81194 2.0672 4.40036 2.06602 4.02409 2.20083C3.01493 2.54 2.29159 3.13667 1.92909 3.92417C1.57909 4.68583 1.59576 5.58 1.97409 6.51C3.06993 9.19917 4.60993 11.5442 6.55243 13.4792C8.45326 15.3733 10.7899 16.9242 13.4966 18.09C13.7408 18.195 13.9966 18.2525 14.1841 18.2942C14.2474 18.3083 14.3024 18.3208 14.3424 18.3317C14.3644 18.3376 14.3871 18.3407 14.4099 18.3408H14.4316C15.7049 18.3408 17.2341 17.1775 17.7033 15.8517C18.1149 14.69 17.3633 14.1158 16.7599 13.655ZM11.3633 5.68583C11.1458 5.69083 10.6916 5.7025 10.5324 6.16417C10.4574 6.38083 10.4666 6.5675 10.5591 6.72167C10.6941 6.94667 10.9533 7.01667 11.1883 7.055C12.0424 7.19167 12.4816 7.66333 12.5691 8.54083C12.6099 8.94917 12.8858 9.235 13.2383 9.235C13.265 9.23496 13.2917 9.23329 13.3183 9.23C13.7433 9.18 13.9491 8.8675 13.9308 8.30167C13.9374 7.71167 13.6291 7.04167 13.1033 6.50833C12.5766 5.97333 11.9416 5.67167 11.3633 5.68583Z" fill="black" fill-opacity="0.5"/>
        </symbol>
        <symbol viewBox="0 0 20 20" id="icon-whatsapp">
            <path d="M10.625 18.75C9.01042 18.75 7.49349 18.3594 6.07422 17.5781L0 20L2.42188 13.9258C1.64062 12.5065 1.25 10.9896 1.25 9.375C1.25 8.09896 1.4974 6.88477 1.99219 5.73242C2.48698 4.58008 3.1543 3.58398 3.99414 2.74414C4.83398 1.9043 5.83008 1.23698 6.98242 0.742188C8.13477 0.247396 9.34896 0 10.625 0C11.901 0 13.1152 0.247396 14.2676 0.742188C15.4199 1.23698 16.416 1.9043 17.2559 2.74414C18.0957 3.58398 18.763 4.58008 19.2578 5.73242C19.7526 6.88477 20 8.09896 20 9.375C20 10.651 19.7526 11.8652 19.2578 13.0176C18.763 14.1699 18.0957 15.166 17.2559 16.0059C16.416 16.8457 15.4199 17.513 14.2676 18.0078C13.1152 18.5026 11.901 18.75 10.625 18.75ZM13.75 11.25H12.5L11.7969 11.875C11.2109 11.7188 10.4915 11.2142 9.63867 10.3613C8.78581 9.50846 8.28125 8.78906 8.125 8.20312L8.75 7.5V6.25C8.75 6.02865 8.67188 5.80729 8.51562 5.58594C8.35938 5.36458 8.18685 5.20508 7.99805 5.10742C7.80924 5.00977 7.67578 5 7.59766 5.07812L6.67969 5.99609C6.17188 6.50391 6.09701 7.29492 6.45508 8.36914C6.81315 9.44336 7.49674 10.485 8.50586 11.4941C9.51497 12.5033 10.5566 13.1868 11.6309 13.5449C12.7051 13.903 13.4961 13.8281 14.0039 13.3203L14.9219 12.4023C15 12.3242 14.9902 12.1908 14.8926 12.002C14.7949 11.8132 14.6354 11.6406 14.4141 11.4844C14.1927 11.3281 13.9714 11.25 13.75 11.25Z" fill="black" fill-opacity="0.5"/>
        </symbol>        
        <symbol viewBox="0 0 20 20" id="icon-mts">
            <g opacity="0.85">
            <g clip-path="url(#clip0)">
            <path fill-rule="evenodd" clip-rule="evenodd" d="M20.0369 20.0356H0V0H20.0369V20.0356ZM15.9089 11.5569C15.9089 7.14848 12.8661 2.05783 10.0187 2.05783C7.17085 2.05783 4.13086 7.14848 4.13086 11.5569C4.13086 15.0196 6.16106 17.9735 10.0187 17.9735C13.8734 17.9735 15.9089 15.0196 15.9089 11.5569Z" fill="black" fill-opacity="0.5"/>
            </g>
            </g>
            <defs>
                <clipPath id="clip0">
                <rect width="20" height="20" rx="1" fill="white"/>
                </clipPath>
            </defs>
        </symbol>
        <symbol viewBox="0 0 20 20" id="icon-search">
            <path d="M18.7501 17.8686L14.0314 13.1249C15.1594 11.7637 15.7199 10.0204 15.5962 8.25688C15.4725 6.49338 14.6743 4.84528 13.3673 3.65492C12.0603 2.46456 10.345 1.82342 8.57762 1.86467C6.81027 1.90592 5.12673 2.62639 3.87668 3.87644C2.62663 5.12648 1.90616 6.81002 1.86491 8.57737C1.82366 10.3447 2.4648 12.06 3.65516 13.3671C4.84553 14.6741 6.49362 15.4723 8.25712 15.596C10.0206 15.7196 11.764 15.1592 13.1251 14.0311L17.8689 18.7499L18.7501 17.8686ZM3.12511 8.74987C3.12511 7.63735 3.45501 6.54981 4.07309 5.62478C4.69118 4.69976 5.56968 3.97879 6.59751 3.55304C7.62535 3.1273 8.75635 3.01591 9.84749 3.23295C10.9386 3.44999 11.9409 3.98572 12.7276 4.77239C13.5143 5.55906 14.05 6.56134 14.267 7.65248C14.4841 8.74363 14.3727 9.87463 13.9469 10.9025C13.5212 11.9303 12.8002 12.8088 11.8752 13.4269C10.9502 14.045 9.86263 14.3749 8.75011 14.3749C7.25827 14.3749 5.82752 13.7822 4.77263 12.7273C3.71774 11.6724 3.12511 10.2417 3.12511 8.74987Z" fill="black" fill-opacity="0.75"/>
        </symbol>
        <symbol viewBox="0 0 60 60" id="icon-protected">
            <path d="M45.2925 53.8208H9.67925V18.4434L21.9434 6.25786H44.6635V19.7799C44.6635 20.0943 44.8994 20.4088 45.2925 20.4088C45.6855 20.4088 45.9214 20.173 45.9214 19.7799V5.62893C45.9214 5.31447 45.6855 5 45.2925 5H21.7075C21.5503 5 21.3931 5.07862 21.3145 5.15723L8.65723 17.8145C8.57862 17.8931 8.5 18.0503 8.5 18.2075V54.3711C8.5 54.6855 8.73585 55 9.12893 55H45.2925C45.6069 55 45.9214 54.7642 45.9214 54.3711C45.9214 53.978 45.6069 53.8208 45.2925 53.8208Z" fill="black" fill-opacity="0.8"/>
            <path d="M22.2577 18.2074V8.77346C22.2577 8.459 22.0219 8.14453 21.6288 8.14453C21.2357 8.14453 20.9999 8.38038 20.9999 8.77346V17.6571H12.2735C11.959 17.6571 11.6445 17.893 11.6445 18.286C11.6445 18.6791 11.8804 18.915 12.2735 18.915H21.7074C22.0219 18.8364 22.2577 18.5219 22.2577 18.2074Z" fill="black" fill-opacity="0.8"/>
            <path d="M39.7901 23.1604H13.8467C13.5322 23.1604 13.2178 23.3962 13.2178 23.7893C13.2178 24.1824 13.4536 24.4183 13.8467 24.4183H39.7901C40.1046 24.4183 40.419 24.1824 40.419 23.7893C40.419 23.3962 40.1046 23.1604 39.7901 23.1604Z" fill="black" fill-opacity="0.8"/>
            <path d="M40.3399 28.4278C40.3399 28.1133 40.1041 27.7988 39.711 27.7988H13.7676C13.4531 27.7988 13.1387 28.0347 13.1387 28.4278C13.1387 28.8208 13.3745 29.0567 13.7676 29.0567H39.711C40.1041 29.0567 40.3399 28.7422 40.3399 28.4278Z" fill="black" fill-opacity="0.8"/>
            <path d="M13.8467 32.5942C13.5322 32.5942 13.2178 32.8301 13.2178 33.2232C13.2178 33.6163 13.4536 33.8521 13.8467 33.8521H35.0731C35.3876 33.8521 35.702 33.6163 35.702 33.2232C35.702 32.8301 35.4662 32.5942 35.0731 32.5942H13.8467Z" fill="black" fill-opacity="0.8"/>
            <path d="M47.4936 30.2358C42.9338 30.2358 38.9244 33.066 37.3521 37.3113H15.4967C15.3395 37.3113 15.1823 37.3899 15.1036 37.4685L11.959 40.6132C11.8804 40.6918 11.8018 40.849 11.8018 41.0063C11.8018 41.1635 11.8018 41.2421 11.8804 41.3994L15.025 44.544C15.1036 44.6226 15.2609 44.7013 15.4181 44.7013H18.6414C18.7986 44.7013 18.9558 44.6226 19.0345 44.544L20.8426 42.7358L22.808 44.544C22.8867 44.6226 23.0439 44.7013 23.2011 44.7013H23.9873C24.1445 44.7013 24.3018 44.6226 24.3804 44.544L26.1885 42.7358L27.9967 44.544C28.0753 44.6226 28.2326 44.7013 28.3898 44.7013H29.176C29.3332 44.7013 29.4904 44.6226 29.569 44.544L31.3772 42.7358L33.1854 44.544C33.264 44.6226 33.4213 44.7013 33.5785 44.7013H37.1162C38.6885 48.9465 42.698 51.7767 47.2577 51.7767C53.2326 51.7767 58.1068 46.9025 58.1068 40.9277C58.1068 34.9528 53.4684 30.2358 47.4936 30.2358ZM47.4936 50.6761C43.2483 50.6761 39.6319 48.0031 38.2955 43.9937C38.2168 43.7579 37.981 43.6006 37.7451 43.6006H34.0502L32.0062 41.5566C31.9275 41.478 31.7703 41.3994 31.6131 41.3994C31.4558 41.3994 31.2986 41.478 31.22 41.5566L29.0974 43.522H28.7829L26.7389 41.478C26.503 41.2421 26.1099 41.2421 25.8741 41.478L23.8301 43.522H23.5156L21.4716 41.478C21.2357 41.2421 20.8426 41.2421 20.6068 41.478L18.5628 43.522H15.7326L13.1382 40.9277L15.7326 38.3333H37.8238C38.0596 38.3333 38.2955 38.1761 38.3741 37.9402C39.7106 34.0094 43.3269 31.3365 47.4936 31.3365C52.8395 31.3365 57.1634 35.6604 57.1634 41.0063C57.1634 46.3522 52.8395 50.6761 47.4936 50.6761Z" fill="black" fill-opacity="0.8"/>
            <path d="M51.4242 36.9182C49.1444 36.9182 47.3362 38.7264 47.3362 41.0063C47.3362 43.2861 49.1444 45.0943 51.4242 45.0943C53.7041 45.0943 55.5123 43.2861 55.5123 41.0063C55.5123 38.7264 53.7041 36.9182 51.4242 36.9182ZM51.4242 43.9151C49.8519 43.9151 48.5154 42.5786 48.5154 41.0063C48.5154 39.4339 49.8519 38.0975 51.4242 38.0975C52.9966 38.0975 54.333 39.4339 54.333 41.0063C54.333 42.5786 53.0752 43.9151 51.4242 43.9151Z" fill="black" fill-opacity="0.8"/>
            <path d="M40.3398 8.77346C40.3398 8.459 40.1039 8.14453 39.7108 8.14453H30.2769C29.9624 8.14453 29.6479 8.38038 29.6479 8.77346V19.7798C29.6479 20.0942 29.8838 20.4087 30.2769 20.4087H39.7108C40.0253 20.4087 40.3398 20.1728 40.3398 19.7798V8.77346ZM39.1605 19.2294H30.9058V9.40239H39.1605V19.2294Z" fill="black" fill-opacity="0.8"/>
        </symbol>
        <symbol viewBox="0 0 60 60" id="icon-reputation">
            <path d="M40.5467 42.0924C44.9775 42.0924 48.5775 38.4924 48.5775 33.9693C48.5775 32.2155 49.316 30.4616 50.516 29.2616C53.6544 26.1231 53.6544 20.9539 50.516 17.8155C49.2237 16.5231 48.5775 14.8616 48.5775 13.1078C48.5775 8.677 44.9775 4.98469 40.4544 4.98469C38.7006 4.98469 36.9467 4.24623 35.7467 3.04623C32.6083 -0.0922324 27.439 -0.0922324 24.3006 3.04623C23.0083 4.33854 21.3467 4.98469 19.5929 4.98469C15.1621 4.98469 11.4698 8.58469 11.4698 13.1078C11.4698 14.8616 10.7313 16.6155 9.53135 17.8155C7.96212 19.3847 7.13135 21.3232 7.13135 23.5385C7.13135 25.6616 7.96212 27.6924 9.53135 29.2616C10.8237 30.5539 11.4698 32.2155 11.4698 33.9693C11.4698 38.4001 15.0698 42.0924 19.5929 42.0924C21.3467 42.0924 23.1006 42.8308 24.3006 44.0308C25.8698 45.6001 27.9006 46.4308 30.0237 46.4308C32.0544 46.4308 34.1775 45.6001 35.7467 44.0308C37.1313 42.7385 38.7929 42.0924 40.5467 42.0924ZM25.4083 43.0155C23.839 41.4462 21.8083 40.6155 19.6852 40.6155C15.9929 40.6155 12.9467 37.5693 12.9467 33.877C12.9467 31.7539 12.116 29.7232 10.5467 28.1539C9.25443 26.8616 8.60827 25.2001 8.60827 23.4462C8.60827 21.6924 9.34673 19.9385 10.5467 18.7385C12.116 17.1693 12.9467 15.1385 12.9467 13.0155C12.9467 9.32315 15.9929 6.277 19.6852 6.277C21.8083 6.277 23.839 5.44623 25.4083 3.877C26.7006 2.76931 28.3621 2.12315 30.116 2.12315C31.8698 2.12315 33.5313 2.76931 34.8237 4.06161C36.3929 5.53854 38.4237 6.36931 40.5467 6.36931C44.239 6.36931 47.1929 9.41546 47.1929 13.1078C47.1929 15.2308 48.0237 17.2616 49.5929 18.8308C52.1775 21.4155 52.1775 25.6616 49.5929 28.3385C48.0237 29.9078 47.1929 31.9385 47.1929 34.0616C47.1929 37.7539 44.1467 40.8001 40.4544 40.8001C38.3314 40.8001 36.3006 41.6308 34.7313 43.2001C32.239 45.6924 27.9929 45.6924 25.4083 43.0155Z" fill="black" fill-opacity="0.8"/>
            <path d="M46.4545 23.5384C46.4545 23.1692 46.1776 22.8 45.7161 22.8C45.3468 22.8 44.9776 23.0769 44.9776 23.5384C44.9776 31.7538 38.2391 38.4923 29.9314 38.5846C21.7161 38.5846 14.9776 31.8461 14.8853 23.5384C14.8853 21.2307 15.3468 19.1076 16.3622 17.0769C19.0391 11.9076 24.393 8.58457 30.1161 8.58457C36.393 8.58457 42.1161 12.5538 44.2391 18.5538C44.3314 18.923 44.793 19.1076 45.1622 19.0153C45.3468 18.923 45.4391 18.8307 45.5314 18.6461C45.6238 18.4615 45.6238 18.2769 45.5314 18.0923C43.2237 11.6307 37.0391 7.19995 30.1161 7.19995C26.9776 7.19995 23.9314 8.12303 21.2545 9.78457C18.6699 11.4461 16.6391 13.7538 15.3468 16.523C14.3314 18.7384 13.7776 21.1384 13.7776 23.6307C13.7776 32.6769 21.1622 40.0615 30.2084 40.0615C39.2545 40.0615 46.4545 32.5846 46.4545 23.5384Z" fill="black" fill-opacity="0.8"/>
            <path d="M41.285 19.9386C41.1927 19.6617 41.0081 19.4771 40.7312 19.4771L33.8081 18.4617L30.762 12.1848C30.4851 11.7232 29.7466 11.7232 29.562 12.1848L26.4235 18.4617L19.5927 19.4771C19.3158 19.4771 19.1312 19.6617 19.0389 19.9386C18.9466 20.2155 19.0389 20.4925 19.2235 20.6771L24.2081 25.5694L22.9158 32.3078C22.9158 32.5848 23.0081 32.8617 23.1927 32.954C23.3774 33.1386 23.6543 33.1386 23.9312 33.0463L30.1158 29.8155L36.3004 33.0463C36.3927 33.1386 36.4851 33.1386 36.5774 33.1386C36.762 33.1386 36.8543 33.1386 36.9466 33.0463C37.1312 32.8617 37.2235 32.5848 37.2235 32.4002L36.0235 25.5694L41.0081 20.6771C41.285 20.4925 41.285 20.2155 41.285 19.9386ZM34.8235 24.7386C34.6389 24.9232 34.5466 25.1079 34.6389 25.3848L35.6543 31.2002L30.3927 28.4309C30.3004 28.3386 30.2081 28.3386 30.1158 28.3386C30.0235 28.3386 29.9312 28.3386 29.8389 28.4309L24.5774 31.2002L25.5927 25.3848C25.5927 25.2002 25.5927 24.9232 25.4081 24.7386L21.162 20.5848L26.9774 19.754C27.162 19.754 27.4389 19.5694 27.5312 19.3848L30.1158 14.1232L32.7004 19.3848C32.7927 19.5694 32.9774 19.754 33.2543 19.754L39.0697 20.5848L34.8235 24.7386Z" fill="black" fill-opacity="0.8"/>
            <path d="M25.5005 47.6308C25.1313 47.4462 24.7621 47.6308 24.5775 48.0001L20.4236 56.8616L17.839 49.6616C17.7467 49.477 17.6544 49.3847 17.4698 49.2924C17.2851 49.2001 17.1005 49.2001 16.9159 49.2924L9.71591 51.877L13.6851 43.2924C13.8698 42.9231 13.6851 42.5539 13.3159 42.3693C12.9467 42.1847 12.5775 42.3693 12.3928 42.7385L7.68514 52.8924C7.59284 53.1693 7.59284 53.4462 7.77745 53.6308C7.96207 53.8155 8.23899 53.9078 8.51591 53.8155L16.639 50.8616L19.5928 58.9847C19.6851 59.2616 19.9621 59.4462 20.239 59.4462C20.5159 59.4462 20.7928 59.2616 20.8851 59.077L25.6851 48.7385C26.0544 48.1847 25.8698 47.8155 25.5005 47.6308Z" fill="black" fill-opacity="0.8"/>
            <path d="M50.9773 53.5386C51.1619 53.3539 51.2542 53.077 51.0696 52.8001L46.6389 43.3847C46.4542 43.0155 46.085 42.9232 45.7158 43.0155C45.3465 43.2001 45.2542 43.5693 45.3465 43.9385L49.0388 51.877L41.8389 49.2924C41.6542 49.2001 41.4696 49.2001 41.285 49.2924C41.1004 49.3847 41.0081 49.477 40.9158 49.6616L38.4235 56.7693L34.5465 48.3693C34.3619 48.0001 33.9927 47.9078 33.6235 48.0001C33.2542 48.1847 33.1619 48.5539 33.2542 48.9232L37.8696 58.8001C37.9619 59.077 38.2389 59.1693 38.5158 59.1693C38.7927 59.1693 39.0696 58.9847 39.1619 58.7078L42.1158 50.5847L50.2388 53.5386C50.5158 53.8155 50.7927 53.7232 50.9773 53.5386Z" fill="black" fill-opacity="0.8"/>
        </symbol>
        <symbol viewBox="0 0 60 60" id="icon-result">
            <path d="M29.9998 25.1078C30.369 25.1078 30.7383 24.8309 30.7383 24.3693C30.7383 23.9078 30.4614 23.6309 29.9998 23.6309C26.5844 23.6309 23.7229 26.4001 23.7229 29.9078C23.7229 33.4155 26.4921 36.1847 29.9998 36.1847C33.5075 36.1847 36.2767 33.4155 36.2767 29.9078C36.2767 29.5386 35.9998 29.1693 35.5383 29.1693C35.0767 29.1693 34.7998 29.4462 34.7998 29.9078C34.7998 32.5847 32.5844 34.8001 29.9075 34.8001C27.2306 34.8001 25.0152 32.5847 25.0152 29.9078C25.0152 27.2309 27.3229 25.1078 29.9998 25.1078Z" fill="black" fill-opacity="0.8"/>
            <path d="M49.6615 14.5848C49.3845 14.7694 49.2922 15.2309 49.4768 15.5079C52.6153 19.6617 54.1845 24.6463 54.1845 29.9079C54.1845 43.3848 43.3845 54.1848 29.9999 54.1848C16.6153 54.1848 5.72299 43.3848 5.72299 30.0002C5.72299 16.6155 16.6153 5.72324 29.9999 5.72324C35.2615 5.72324 40.2461 7.38478 44.3999 10.4309C44.6768 10.6155 45.1384 10.6155 45.323 10.2463C45.5076 9.96939 45.5076 9.50785 45.1384 9.32324C40.7076 6.00016 35.4461 4.33862 29.9076 4.33862C15.8768 4.33862 4.33838 15.8771 4.33838 30.0002C4.33838 44.1232 15.7845 55.6617 29.9999 55.6617C44.2153 55.6617 55.6615 44.2155 55.6615 30.0002C55.6615 24.4617 53.9076 19.2002 50.6768 14.7694C50.3999 14.4925 49.9384 14.4002 49.6615 14.5848Z" fill="black" fill-opacity="0.8"/>
            <path d="M40.8 14.9539C40.9846 14.677 40.8923 14.2154 40.6154 14.0308C37.4769 11.9077 33.8769 10.8923 30.0923 10.8923C19.5693 10.8923 10.8923 19.477 10.8923 30.0923C10.8923 40.7077 19.4769 49.2923 30.0923 49.2923C40.7077 49.2923 49.2923 40.7077 49.2923 30.0923C49.2923 26.3077 48.1846 22.7077 46.1539 19.5693C45.9693 19.2923 45.5077 19.2 45.2308 19.3846C44.9539 19.5693 44.8616 20.0308 45.0462 20.3077C46.9846 23.1693 48 26.5846 48 30.0923C48 39.877 40.0616 47.9077 30.1846 47.9077C20.3077 47.9077 12.3693 39.9693 12.3693 30.0923C12.3693 20.2154 20.3077 12.2769 30.1846 12.2769C33.6923 12.2769 37.1077 13.2923 39.9693 15.2308C40.1539 15.4154 40.5231 15.3231 40.8 14.9539Z" fill="black" fill-opacity="0.8"/>
            <path d="M36.0922 19.6617C36.2769 19.2925 36.0922 18.9232 35.8153 18.7386C34.0615 17.8155 32.0307 17.354 29.9999 17.354C22.9845 17.354 17.2615 23.0771 17.2615 30.0925C17.2615 37.1078 22.9845 42.8309 29.9999 42.8309C37.0153 42.8309 42.7384 37.1078 42.7384 30.0925C42.7384 28.0617 42.2768 26.1232 41.3538 24.2771C41.1692 23.9078 40.7999 23.8155 40.4307 24.0002C40.0615 24.1848 39.9692 24.554 40.1538 24.9232C40.9845 26.4925 41.3538 28.2463 41.3538 30.0925C41.3538 36.3694 36.2769 41.4463 29.9999 41.4463C23.723 41.4463 18.6461 36.3694 18.6461 30.0925C18.6461 23.8155 23.723 18.7386 29.9999 18.7386C31.8461 18.7386 33.5076 19.2002 35.1692 19.9386C35.4461 20.1232 35.9076 19.9386 36.0922 19.6617Z" fill="black" fill-opacity="0.8"/>
            <path d="M56.7695 8.1232H52.8926L56.308 4.61551C56.5849 4.33859 56.5849 3.87705 56.308 3.60012C56.0311 3.3232 55.6618 3.41551 55.3849 3.69243L51.9695 7.10782V3.23089C51.9695 2.86166 51.6926 2.49243 51.2311 2.49243C50.7695 2.49243 50.4926 2.76935 50.4926 3.23089V8.49243L29.5387 29.5386C29.2618 29.8155 29.2618 30.277 29.5387 30.554C29.6311 30.6463 29.8157 30.7386 30.0003 30.7386C30.1849 30.7386 30.3695 30.6463 30.4618 30.554L51.508 9.50782H56.7695C57.1387 9.50782 57.508 9.23089 57.508 8.76935C57.508 8.30782 57.1387 8.1232 56.7695 8.1232Z" fill="black" fill-opacity="0.8"/>
        </symbol>
        <symbol viewBox="0 0 60 60" id="icon-safe">
            <path d="M52.7154 16.8114C39.2385 16.6268 30.5616 4.6268 30.4693 4.53449C30.1923 4.16526 29.6385 4.16526 29.3616 4.53449C29.2693 4.6268 20.5923 16.6268 7.11541 16.8114C6.74618 16.8114 6.46926 17.0883 6.46926 17.4576C6.46926 17.7345 3.88464 45.1499 29.7308 56.4114C29.8231 56.4114 29.9154 56.5037 30.0077 56.5037C30.1 56.5037 30.1923 56.5037 30.2846 56.4114C56.0385 45.2422 53.5462 17.7345 53.5462 17.4576C53.3616 17.0883 53.0846 16.8114 52.7154 16.8114ZM29.9154 54.9345C7.48464 45.0576 7.57695 22.1653 7.76156 18.196C19.7616 17.7345 27.7923 8.78064 29.9154 6.10372C32.0385 8.78064 40.0693 17.7345 52.0693 18.196C52.2539 22.1653 52.3462 45.0576 29.9154 54.9345Z" fill="black" fill-opacity="0.8"/>
            <path d="M47.3614 21.796C39.7922 20.3191 33.9768 15.9806 30.3768 12.6575C30.1461 12.4445 29.9153 12.2222 29.9153 12.2222C29.9153 12.2222 29.6845 12.4389 29.4537 12.6575C25.9461 15.9806 20.0384 20.3191 12.4691 21.796C12.255 21.8495 11.8787 21.9299 11.8787 21.9299C11.8787 21.9299 11.9153 22.3793 11.9153 22.5345C12.4691 29.7345 15.423 42.9345 29.5461 50.2268C29.6384 50.3191 29.7307 50.3191 29.823 50.3191C29.9153 50.3191 30.0076 50.3191 30.0999 50.2268C44.3153 42.9345 47.0483 29.7169 47.7307 22.5345C47.7531 22.2985 47.7947 21.8759 47.7947 21.8759C47.7947 21.8759 47.7767 21.8699 47.3614 21.796ZM29.9153 48.8422C16.9922 42.0114 14.0384 30.0114 13.3922 23.0883C20.6845 21.5191 26.3153 17.4575 29.9153 14.1345C33.5153 17.4575 39.2384 21.4268 46.4384 23.0883C45.8845 30.0114 42.8384 42.0114 29.9153 48.8422Z" fill="black" fill-opacity="0.8"/>
            <path d="M26.0385 25.2115V28.2577H23.9155H23.177V38.9654H23.9155H36.8385H37.577V28.9961V28.2577H34.7155V25.2115C34.7155 22.8115 32.777 20.7808 30.2847 20.7808C27.7924 20.7808 26.0385 22.8115 26.0385 25.2115ZM36.1924 37.4885H24.6539V29.6423H26.777H34.1616H36.2847V37.4885H36.1924ZM27.5155 25.2115C27.5155 23.55 28.8078 22.1654 30.4693 22.1654C32.1308 22.1654 33.5155 23.55 33.5155 25.2115V28.2577H27.5155V25.2115Z" fill="black" fill-opacity="0.8"/>
            <path d="M30.3769 31.95L29.6384 31.95V35.273H30.3769H31.1153V31.95L30.3769 31.95Z" fill="black" fill-opacity="0.8"/>
        </symbol>
        <symbol viewBox="0 0 40 40" id="icon-deptmoney">
            <path d="M39.6393 23.9907C38.4706 22.3626 37.2859 22.3366 34.3198 23.8974L28.5709 27.4121C27.7189 27.8655 25.9702 28.0015 24.2741 28.0302C24.5755 27.4028 24.4408 26.6541 23.8715 25.8034C23.3441 25.0167 22.6261 24.3914 21.7927 23.964C23.1741 22.8413 24.0008 21.1699 24.0008 19.3332C24.0008 16.0251 21.3094 13.333 18.0006 13.333C14.6918 13.333 12.0004 16.0251 12.0004 19.3332C12.0004 20.3206 12.2457 21.2633 12.6851 22.104C12.6764 22.098 12.6671 22.0926 12.6591 22.086C10.2657 20.2812 6.26687 20.0266 4.66749 19.9992V17.9812H0V39.3339H4.66682V37.3338H13.3338C14.6938 37.3338 16.0659 37.2298 17.4112 37.0258L26.0535 35.7118C26.3682 35.7078 26.6869 35.6704 26.9709 35.6064C27.7669 35.4944 28.5276 35.1144 29.1723 34.5064L39.2773 26.6368L39.2926 26.6241C40.08 25.9728 40.232 24.8154 39.6393 23.9907ZM15.4472 23.2327C14.1211 22.3646 13.3338 20.9166 13.3338 19.3332C13.3338 16.7598 15.4278 14.6664 18.0006 14.6664C20.5733 14.6664 22.6674 16.7598 22.6674 19.3332C22.6674 21.0573 21.7401 22.606 20.2327 23.426C20.15 23.41 20.066 23.402 19.9827 23.3893C19.8993 23.3767 19.8173 23.362 19.7327 23.3527C19.516 23.3287 19.298 23.314 19.0793 23.314H16.4792C16.1439 23.3147 15.7972 23.2873 15.4472 23.2327ZM3.33344 38.0005H1.33338V19.3145H3.33344V20.0219V37.3345V38.0005ZM38.4493 25.5921L28.3269 33.4743L28.2756 33.519C27.8289 33.9464 27.3136 34.2117 26.7196 34.2977C26.4769 34.3517 26.2349 34.379 26.0009 34.379L17.2106 35.7078C15.9312 35.9024 14.6265 36.0011 13.3338 36.0011H4.66682V21.3346C6.14487 21.3653 9.80433 21.6039 11.8564 23.1507C12.7471 23.8227 13.8145 24.2787 14.9532 24.4974L14.9632 24.5034L15.0898 24.5254C15.0965 24.5267 15.1025 24.5267 15.1092 24.528C15.3278 24.5654 15.5492 24.5954 15.7725 24.6147C15.7799 24.6154 15.7872 24.6167 15.7939 24.6174C16.0205 24.6367 16.2485 24.6481 16.4785 24.6481H19.0786C19.4453 24.6481 19.812 24.6914 20.168 24.7767L20.2107 24.7874C21.2594 25.0474 22.1707 25.6641 22.7621 26.5461C23.0428 26.9641 23.1534 27.3115 23.0594 27.4748C22.8814 27.7828 22.0554 27.9722 21.2174 28.0088C20.9447 28.0042 20.696 28.0008 20.478 28.0008H14.0005C11.9131 28.0008 10.667 28.9975 10.667 30.6676C10.667 31.0356 10.965 31.3343 11.3337 31.3343C11.7024 31.3343 12.0004 31.0356 12.0004 30.6676C12.0004 30.3376 12.0004 29.3342 14.0005 29.3342H20.4633C20.6147 29.3435 20.9054 29.3562 21.2714 29.3429C21.386 29.3449 21.5047 29.3469 21.6261 29.3489C24.7548 29.4069 27.6889 29.3909 29.2316 28.5695L34.9772 25.0561C37.7266 23.6114 38.0033 23.9987 38.5553 24.7681C38.74 25.0241 38.6926 25.3847 38.4493 25.5921Z" fill="#DEC377"/>
            <path d="M21.3341 19.3332C21.3341 17.4951 19.8387 15.9998 18.0007 15.9998C16.1626 15.9998 14.6672 17.4951 14.6672 19.3332C14.6672 21.1713 16.1626 22.6666 18.0007 22.6666C19.8387 22.6666 21.3341 21.1713 21.3341 19.3332ZM18.0007 21.3333C16.898 21.3333 16.0006 20.4359 16.0006 19.3332C16.0006 18.2305 16.898 17.3331 18.0007 17.3331C19.1034 17.3331 20.0007 18.2305 20.0007 19.3332C20.0007 20.4359 19.1034 21.3333 18.0007 21.3333Z" fill="#DEC377"/>
            <path d="M28.0009 12.6664C31.3097 12.6664 34.0011 9.97432 34.0011 6.66621C34.0011 3.35811 31.3097 0.666016 28.0009 0.666016C24.6922 0.666016 22.0007 3.35811 22.0007 6.66621C22.0007 9.97432 24.6922 12.6664 28.0009 12.6664ZM28.0009 1.99939C30.5737 1.99939 32.6678 4.0928 32.6678 6.66621C32.6678 9.23963 30.5737 11.333 28.0009 11.333C25.4282 11.333 23.3341 9.23963 23.3341 6.66621C23.3341 4.0928 25.4282 1.99939 28.0009 1.99939Z" fill="#DEC377"/>
            <path d="M28.0009 9.99965C29.839 9.99965 31.3344 8.50427 31.3344 6.66621C31.3344 4.82815 29.839 3.33276 28.0009 3.33276C26.1629 3.33276 24.6675 4.82815 24.6675 6.66621C24.6675 8.50427 26.1629 9.99965 28.0009 9.99965ZM28.0009 4.66614C29.1036 4.66614 30.001 5.5635 30.001 6.66621C30.001 7.76891 29.1036 8.66627 28.0009 8.66627C26.8982 8.66627 26.0009 7.76891 26.0009 6.66621C26.0009 5.5635 26.8982 4.66614 28.0009 4.66614Z" fill="#DEC377"/>
        </symbol>
        <symbol viewBox="0 0 40 40" id="icon-reorganize">
            <path d="M35.3333 27.3793V19.3333H20.6667V12.6207C23.2933 12.2907 25.3333 10.048 25.3333 7.33333C25.3333 4.39267 22.9407 2 20 2C17.0593 2 14.6667 4.39267 14.6667 7.33333C14.6667 10.048 16.7067 12.2907 19.3333 12.6207V19.3333H4.66667V27.3793C2.04 27.7093 0 29.952 0 32.6667C0 35.6073 2.39267 38 5.33333 38C8.274 38 10.6667 35.6073 10.6667 32.6667C10.6667 29.952 8.62667 27.7093 6 27.3793V20.6667H19.3333V27.3793C16.7067 27.7093 14.6667 29.952 14.6667 32.6667C14.6667 35.6073 17.0593 38 20 38C22.9407 38 25.3333 35.6073 25.3333 32.6667C25.3333 29.952 23.2933 27.7093 20.6667 27.3793V20.6667H34V27.3793C31.3733 27.7093 29.3333 29.952 29.3333 32.6667C29.3333 35.6073 31.726 38 34.6667 38C37.6073 38 40 35.6073 40 32.6667C40 29.952 37.96 27.7093 35.3333 27.3793ZM16 7.33333C16 5.12733 17.794 3.33333 20 3.33333C22.206 3.33333 24 5.12733 24 7.33333C24 9.53933 22.206 11.3333 20 11.3333C17.794 11.3333 16 9.53933 16 7.33333ZM9.33333 32.6667C9.33333 34.8727 7.53933 36.6667 5.33333 36.6667C3.12733 36.6667 1.33333 34.8727 1.33333 32.6667C1.33333 30.4607 3.12733 28.6667 5.33333 28.6667C7.53933 28.6667 9.33333 30.4607 9.33333 32.6667ZM24 32.6667C24 34.8727 22.206 36.6667 20 36.6667C17.794 36.6667 16 34.8727 16 32.6667C16 30.4607 17.794 28.6667 20 28.6667C22.206 28.6667 24 30.4607 24 32.6667ZM34.6667 36.6667C32.4607 36.6667 30.6667 34.8727 30.6667 32.6667C30.6667 30.4607 32.4607 28.6667 34.6667 28.6667C36.8727 28.6667 38.6667 30.4607 38.6667 32.6667C38.6667 34.8727 36.8727 36.6667 34.6667 36.6667Z" fill="#DEC377"/>
        </symbol>
        <symbol viewBox="0 0 40 40" id="icon-price">
            <g clip-path="url(#clip0)">
            <path d="M39.4727 0.195266C39.212 -0.0654141 38.7906 -0.0654141 38.5299 0.195266L36.0578 2.66672H20.5357L1.0214 22.3417C0.57671 22.7857 0.332031 23.3771 0.332031 24.0051C0.332031 24.6332 0.57671 25.2245 1.0214 25.6685L14.6661 39.3132C15.1241 39.7712 15.7248 39.9999 16.3268 39.9999C16.9309 39.9999 17.5362 39.7692 17.9989 39.3066L37.0005 19.7916V3.60944L39.472 1.13798C39.7327 0.8773 39.7327 0.455945 39.4727 0.195266ZM35.6678 19.2502L17.0502 38.3705C16.6535 38.7679 16.0068 38.7679 15.6088 38.3705L1.96411 24.7258C1.77144 24.5331 1.66543 24.2771 1.66543 24.0051C1.66543 23.7331 1.77144 23.4771 1.96611 23.2824L21.0911 4.00012H34.7251L31.5029 7.22228C30.9756 6.87293 30.3455 6.66692 29.6675 6.66692C27.8294 6.66692 26.334 8.16233 26.334 10.0004C26.334 11.8385 27.8294 13.3339 29.6675 13.3339C31.5056 13.3339 33.001 11.8385 33.001 10.0004C33.001 9.32239 32.795 8.69236 32.4456 8.165L35.6678 4.94284V19.2502ZM31.6676 10.0004C31.6676 11.1031 30.7702 12.0005 29.6675 12.0005C28.5648 12.0005 27.6674 11.1031 27.6674 10.0004C27.6674 8.8977 28.5648 8.00032 29.6675 8.00032C29.9755 8.00032 30.2635 8.07633 30.5242 8.201L29.1961 9.52907C28.9355 9.78974 28.9355 10.2111 29.1961 10.4718C29.3261 10.6018 29.4968 10.6671 29.6675 10.6671C29.8382 10.6671 30.0088 10.6018 30.1389 10.4718L31.4669 9.14371C31.5916 9.40439 31.6676 9.69241 31.6676 10.0004Z" fill="#DEC377"/>
            <path d="M26.9426 14.0881C27.2033 13.8274 27.2033 13.4061 26.9426 13.1454C26.6819 12.8847 26.2606 12.8847 25.9999 13.1454L25.5025 13.6428C24.3111 12.6894 22.799 12.2207 21.2556 12.3514C20.1802 12.4414 19.2069 12.9607 18.5148 13.8134C17.8028 14.6915 17.4741 15.8395 17.6148 16.9629L18.1221 21.0231L12.1572 26.9881C10.7904 25.1613 10.9318 22.5565 12.5905 20.8971C12.8512 20.6364 12.8512 20.2151 12.5905 19.9544C12.3299 19.6937 11.9085 19.6937 11.6478 19.9544C9.46771 22.1345 9.32104 25.5873 11.2045 27.9408L10.4431 28.7022C10.1824 28.9628 10.1824 29.3842 10.4431 29.6449C10.5731 29.7749 10.7438 29.8402 10.9145 29.8402C11.0851 29.8402 11.2558 29.7749 11.3858 29.6449L12.1478 28.8828C13.2099 29.7316 14.5253 30.1976 15.8887 30.1976C16.056 30.1976 16.2241 30.1902 16.3927 30.1762C17.4681 30.0869 18.4415 29.5682 19.1335 28.7148C19.8462 27.8368 20.1749 26.6881 20.0342 25.5647L19.5269 21.5045L25.4918 15.5395C26.8579 17.3663 26.7172 19.9717 25.0578 21.6311C24.7971 21.8918 24.7971 22.3132 25.0578 22.5739C25.3185 22.8345 25.7399 22.8345 26.0005 22.5739C28.1806 20.3931 28.3267 16.9402 26.4439 14.5868L26.9426 14.0881ZM18.7095 25.7307C18.8055 26.4954 18.5822 27.2768 18.0968 27.8755C17.6355 28.4442 16.9908 28.7895 16.2807 28.8488C15.1353 28.9388 14.0086 28.6095 13.0999 27.9315L18.3308 22.6999L18.7095 25.7307ZM18.9369 16.7976C18.8408 16.0335 19.0642 15.2515 19.5489 14.6535C20.0102 14.0848 20.6556 13.7394 21.3656 13.6794C22.511 13.5854 23.6384 13.9181 24.5471 14.5968L19.3155 19.8284L18.9369 16.7976Z" fill="#DEC377"/>
            </g>
            <defs>
            <clipPath id="clip0">
            <rect width="40" height="40" fill="white"/>
            </clipPath>
            </defs>
        </symbol>
        <symbol viewBox="0 0 40 40" id="icon-support">
            <path fill-rule="evenodd" clip-rule="evenodd" d="M20 1C9.80991 1 1.49341 9.02197 1.02116 19.0953H1V28.0424C1 30.7629 3.20542 32.9683 5.92594 32.9683C8.64646 32.9683 10.8519 30.7629 10.8519 28.0424V24.0212C10.8519 21.3007 8.64646 19.0953 5.92594 19.0953H2.83293C3.30342 10.0218 10.8095 2.80953 20 2.80953C29.1906 2.80953 36.6967 10.0218 37.1672 19.0953H34.0742C31.3536 19.0953 29.1482 21.3007 29.1482 24.0212V28.0424C29.1482 30.7629 31.3536 32.9683 34.0742 32.9683C35.2565 32.9683 36.3416 32.5518 37.1906 31.8574V32.0635C37.1906 34.0021 36.8623 35.2979 36.3372 36.0854C35.8554 36.8082 35.151 37.1905 34.0742 37.1905H23.1165V39H34.0742C35.6781 39 36.9844 38.3769 37.8429 37.0892C38.6582 35.8661 39.0001 34.146 39.0001 32.0635V23.1164L39.0001 20C39.0001 9.50661 30.4935 1 20 1ZM2.80953 28.0424V20.9048H5.92594C7.64708 20.9048 9.04235 22.3001 9.04235 24.0212V28.0424C9.04235 29.7635 7.64708 31.1588 5.92594 31.1588C4.20479 31.1588 2.80953 29.7635 2.80953 28.0424ZM34.0742 20.9048H37.1906V28.0424C37.1906 29.7635 35.7953 31.1588 34.0742 31.1588C32.353 31.1588 30.9577 29.7635 30.9577 28.0424V24.0212C30.9577 22.3001 32.353 20.9048 34.0742 20.9048Z" fill="#DEC377"/>
        </symbol>
        <symbol viewBox="0 0 40 40" id="icon-lbox">
            <path d="M33.036 0H6.964L0 11.142V40H40V11.142L33.036 0ZM38.1307 10.6667H20.6667V1.33333H32.2973L38.1307 10.6667ZM7.70267 1.33333H19.3333V10.6667H1.86933L7.70267 1.33333ZM1.33333 38.6667V12H38.6667V38.6667H1.33333Z" fill="#DEC377"/>
            <path d="M24 15.3333H16C14.8973 15.3333 14 16.2306 14 17.3333C14 18.4359 14.8973 19.3333 16 19.3333H24C25.1027 19.3333 26 18.4359 26 17.3333C26 16.2306 25.1027 15.3333 24 15.3333ZM24 17.9999H16C15.6327 17.9999 15.3333 17.7013 15.3333 17.3333C15.3333 16.9653 15.6327 16.6666 16 16.6666H24C24.3673 16.6666 24.6667 16.9653 24.6667 17.3333C24.6667 17.7013 24.3673 17.9999 24 17.9999Z" fill="#DEC377"/>
            <path d="M25.3333 34.6667H14.6667C14.2987 34.6667 14 34.9647 14 35.3334C14 35.7021 14.2987 36.0001 14.6667 36.0001H25.3333C25.7013 36.0001 26 35.7021 26 35.3334C26 34.9647 25.7013 34.6667 25.3333 34.6667Z" fill="#DEC377"/>
            <path d="M16.6666 26.0008C17.0346 26.0008 17.3333 26.2988 17.3333 26.6674V31.0581L18.1953 30.1961C18.3253 30.0661 18.4959 30.0008 18.6666 30.0008C18.8373 30.0008 19.0079 30.0661 19.1379 30.1961C19.3986 30.4568 19.3986 30.8781 19.1379 31.1388L17.1386 33.1381C17.0773 33.2001 17.0033 33.2488 16.9213 33.2828C16.7586 33.3501 16.5746 33.3501 16.4119 33.2828C16.3299 33.2488 16.2566 33.2001 16.1946 33.1381L14.1953 31.1388C13.9346 30.8781 13.9346 30.4568 14.1953 30.1961C14.3253 30.0661 14.4959 30.0008 14.6666 30.0008C14.8373 30.0008 15.0079 30.0661 15.1379 30.1961L15.9999 31.0581V26.6674C15.9999 26.2988 16.2986 26.0008 16.6666 26.0008Z" fill="#DEC377"/>
            <path d="M23.8053 33.1381C23.744 33.2001 23.67 33.2488 23.588 33.2828C23.4253 33.3501 23.2413 33.3501 23.0787 33.2828C22.9967 33.2488 22.9233 33.2001 22.8613 33.1381L20.862 31.1388C20.6013 30.8781 20.6013 30.4568 20.862 30.1961C20.992 30.0661 21.1627 30.0008 21.3333 30.0008C21.504 30.0008 21.6747 30.0661 21.8047 30.1961L22.6667 31.0581V26.6674C22.6667 26.2988 22.9653 26.0008 23.3333 26.0008C23.7013 26.0008 24 26.2988 24 26.6674V31.0581L24.862 30.1961C24.992 30.0661 25.1627 30.0008 25.3333 30.0008C25.504 30.0008 25.6747 30.0661 25.8047 30.1961C26.0653 30.4568 26.0653 30.8781 25.8047 31.1388L23.8053 33.1381Z" fill="#DEC377"/>
        </symbol>
        <symbol viewBox="0 0 40 40" id="icon-doc">
            <path d="M40 11.162H34.0459V8.59829H17.8262L15.9034 3.47095H2V34.8759H34.0459V34.3164L40 11.162ZM38.3464 12.4438L34.0459 29.1692V12.4438H38.3464ZM3.28184 4.75278H15.0151L16.9379 9.88012H32.764V11.162V33.5941H3.28184V4.75278Z" fill="#DEC377"/>
            <path d="M5.84546 31.0303H21.2275V21.4165H5.84546V31.0303ZM7.12729 22.6983H19.9456V29.7484H7.12729V22.6983Z" fill="#DEC377"/>
            <path d="M14.8184 27.1851H9.0501C8.69567 27.1851 8.40918 27.4715 8.40918 27.826C8.40918 28.1804 8.69567 28.4669 9.0501 28.4669H14.8184C15.1728 28.4669 15.4593 28.1804 15.4593 27.826C15.4593 27.4715 15.1728 27.1851 14.8184 27.1851Z" fill="#DEC377"/>
            <path d="M9.0501 25.2623H11.6138C11.9682 25.2623 12.2547 24.9758 12.2547 24.6214C12.2547 24.267 11.9682 23.9805 11.6138 23.9805H9.0501C8.69567 23.9805 8.40918 24.267 8.40918 24.6214C8.40918 24.9758 8.69567 25.2623 9.0501 25.2623Z" fill="#DEC377"/>
            <path d="M18.0229 23.9805H16.741C16.3866 23.9805 16.1001 24.267 16.1001 24.6214C16.1001 24.9758 16.3866 25.2623 16.741 25.2623H18.0229C18.3773 25.2623 18.6638 24.9758 18.6638 24.6214C18.6638 24.267 18.3773 23.9805 18.0229 23.9805Z" fill="#DEC377"/>
            <path d="M16.9271 27.3707C16.8111 27.4919 16.7412 27.6521 16.7412 27.8258C16.7412 27.9988 16.8111 28.1591 16.9271 28.2744C17.0482 28.3956 17.2084 28.4667 17.3821 28.4667C17.5488 28.4667 17.7154 28.3962 17.8372 28.2808C17.9525 28.1591 18.023 27.9924 18.023 27.8258C18.023 27.6591 17.9525 27.4919 17.8372 27.3707C17.6 27.1336 17.1642 27.1336 16.9271 27.3707Z" fill="#DEC377"/>
            <path d="M14.1775 25.2621C14.3442 25.2621 14.5108 25.1916 14.6326 25.0762C14.748 24.9545 14.8185 24.7878 14.8185 24.6212C14.8185 24.4475 14.748 24.2873 14.6326 24.1661C14.3955 23.929 13.9526 23.929 13.7225 24.1661C13.6065 24.2873 13.5366 24.4545 13.5366 24.6212C13.5366 24.7878 13.6065 24.9545 13.7225 25.0762C13.8436 25.1916 14.0109 25.2621 14.1775 25.2621Z" fill="#DEC377"/>
        </symbol>
        <symbol viewBox="0 0 40 40" id="icon-stamp">
            <g clip-path="url(#clip0)">
            <path d="M36.41 25.9996H26.0003V21.9995H23.3336V17.838C23.3336 16.4127 23.9482 15.0739 24.9776 14.2553C26.899 12.7292 28.0004 10.4485 28.0004 7.99904C28.0004 5.72163 27.025 3.54556 25.325 2.02884C23.6262 0.512794 21.3415 -0.20923 19.0621 0.0527791C15.4933 0.458793 12.5545 3.33422 12.0745 6.88901C11.6945 9.7051 12.7792 12.4445 14.9766 14.2179C16.0346 15.0719 16.6667 16.4713 16.6667 17.96V21.9995H13.9999V25.9996H3.59023C2.71354 25.9996 1.99951 26.713 1.99951 27.5904V35.0766C1.99951 35.9533 2.71287 36.6673 3.59023 36.6673H4.06025C4.37892 38.5561 6.02165 40.0008 8.00038 40.0008H32.0012C33.9792 40.0008 35.622 38.5561 35.9413 36.6673H36.4113C37.288 36.6673 38.002 35.954 38.002 35.0766V27.5904C38.0007 26.7137 37.2873 25.9996 36.41 25.9996ZM15.814 13.1805C13.9826 11.7025 13.0785 9.41709 13.3966 7.06768C13.7966 4.10891 16.2433 1.71683 19.2141 1.37749C21.1468 1.16015 23.0015 1.74217 24.4376 3.02421C25.855 4.28825 26.6677 6.10165 26.6677 7.99971C26.6677 10.0404 25.7496 11.9398 24.1489 13.2119C22.7835 14.2973 22.0008 15.9833 22.0008 17.838V21.9995H18.0007V17.9607C18 16.0446 17.2033 14.3019 15.814 13.1805ZM15.3333 23.3329H16.6667H23.3336H24.6669V25.9996H15.3333V23.3329ZM32.0005 38.6667H7.99971C6.75967 38.6667 5.71364 37.816 5.41763 36.6667H34.5826C34.2866 37.816 33.2412 38.6667 32.0005 38.6667ZM36.6673 35.0766C36.6673 35.2186 36.552 35.334 36.41 35.334H36.0006H3.99958H3.59023C3.44823 35.334 3.33289 35.2186 3.33289 35.0766V27.5904C3.33289 27.4484 3.44823 27.333 3.59023 27.333H13.9999H26.0003H36.41C36.552 27.333 36.6673 27.4484 36.6673 27.5904V35.0766Z" fill="#DEC377"/>
            </g>
            <defs>
            <clipPath id="clip0">
            <rect width="40" height="40" fill="white"/>
            </clipPath>
            </defs>
        </symbol>
        <symbol viewBox="0 0 40 40" id="icon-outsource">
            <g clip-path="url(#clip0)">
            <path d="M33.4939 34.5999H30.1911C30.0159 34.5999 29.8479 34.5303 29.724 34.4064C29.6001 34.2825 29.5305 34.1145 29.5305 33.9393C29.5305 33.7641 29.6001 33.5961 29.724 33.4722C29.8479 33.3484 30.0159 33.2788 30.1911 33.2788H33.4939C34.895 33.2772 36.2382 32.7199 37.2289 31.7292C38.2196 30.7385 38.7769 29.3953 38.7785 27.9942V18.7463C38.7769 17.3452 38.2196 16.002 37.2289 15.0113C36.2382 14.0206 34.895 13.4633 33.4939 13.4618H30.1911C30.0159 13.4618 29.8479 13.3922 29.724 13.2683C29.6001 13.1444 29.5305 12.9764 29.5305 12.8012C29.5305 12.626 29.6001 12.458 29.724 12.3341C29.8479 12.2102 30.0159 12.1406 30.1911 12.1406H33.4939C35.2453 12.1425 36.9243 12.8391 38.1627 14.0775C39.4011 15.3159 40.0977 16.995 40.0996 18.7463V27.9942C40.0977 29.7456 39.4011 31.4246 38.1627 32.663C36.9243 33.9014 35.2453 34.598 33.4939 34.5999Z" fill="#DEC377"/>
            <path d="M33.4939 30.6365H30.1911C30.0159 30.6365 29.8479 30.5669 29.724 30.443C29.6001 30.3191 29.5305 30.1511 29.5305 29.9759C29.5305 29.8007 29.6001 29.6327 29.724 29.5088C29.8479 29.3849 30.0159 29.3153 30.1911 29.3153H33.4939C33.8443 29.3153 34.1803 29.1762 34.4281 28.9284C34.6759 28.6806 34.8151 28.3446 34.8151 27.9942V18.7463C34.8151 18.3959 34.6759 18.0598 34.4281 17.8121C34.1803 17.5643 33.8443 17.4251 33.4939 17.4251H30.1911C30.0159 17.4251 29.8479 17.3555 29.724 17.2317C29.6001 17.1078 29.5305 16.9398 29.5305 16.7646C29.5305 16.5894 29.6001 16.4214 29.724 16.2975C29.8479 16.1736 30.0159 16.104 30.1911 16.104H33.4939C34.1947 16.104 34.8668 16.3824 35.3623 16.8779C35.8578 17.3734 36.1362 18.0455 36.1362 18.7463V27.9942C36.1362 28.695 35.8578 29.3671 35.3623 29.8626C34.8668 30.3581 34.1947 30.6365 33.4939 30.6365Z" fill="#DEC377"/>
            <path d="M28.8698 37.2421H7.7317C7.20612 37.2421 6.70207 37.0333 6.33043 36.6617C5.95879 36.29 5.75 35.786 5.75 35.2604V11.48C5.75 10.9544 5.95879 10.4504 6.33043 10.0787C6.70207 9.70708 7.20612 9.49829 7.7317 9.49829H28.8698C29.3954 9.49829 29.8995 9.70708 30.2711 10.0787C30.6428 10.4504 30.8515 10.9544 30.8515 11.48V35.2604C30.8515 35.786 30.6428 36.29 30.2711 36.6617C29.8995 37.0333 29.3954 37.2421 28.8698 37.2421ZM7.7317 10.8194C7.55651 10.8194 7.38849 10.889 7.26461 11.0129C7.14073 11.1368 7.07113 11.3048 7.07113 11.48V35.2604C7.07113 35.4356 7.14073 35.6036 7.26461 35.7275C7.38849 35.8514 7.55651 35.921 7.7317 35.921H28.8698C29.045 35.921 29.213 35.8514 29.3369 35.7275C29.4608 35.6036 29.5304 35.4356 29.5304 35.2604V11.48C29.5304 11.3048 29.4608 11.1368 29.3369 11.0129C29.213 10.889 29.045 10.8194 28.8698 10.8194H7.7317Z" fill="#DEC377"/>
            <path d="M13.0161 8.17711C12.8855 8.17708 12.7578 8.13832 12.6492 8.06574C12.5406 7.99315 12.456 7.88999 12.406 7.76931C12.356 7.64862 12.3429 7.51583 12.3684 7.38771C12.3939 7.25959 12.4567 7.1419 12.5491 7.04952C12.7263 6.90715 12.8693 6.72682 12.9676 6.52184C13.0658 6.31686 13.1168 6.09244 13.1168 5.86512C13.1168 5.63781 13.0658 5.41339 12.9676 5.2084C12.8693 5.00342 12.7263 4.8231 12.5491 4.68073C12.2508 4.41428 12.0121 4.08785 11.8487 3.72278C11.6853 3.35772 11.6008 2.96226 11.6008 2.56229C11.6008 2.16232 11.6853 1.76686 11.8487 1.40179C12.0121 1.03673 12.2508 0.710292 12.5491 0.443851C12.61 0.38076 12.6829 0.330436 12.7635 0.295817C12.8441 0.261197 12.9308 0.242975 13.0185 0.242212C13.1062 0.24145 13.1932 0.258164 13.2744 0.291378C13.3556 0.324592 13.4293 0.373641 13.4913 0.435663C13.5533 0.497685 13.6024 0.571439 13.6356 0.65262C13.6688 0.733801 13.6855 0.820785 13.6848 0.908494C13.684 0.996204 13.6658 1.08288 13.6312 1.16348C13.5966 1.24407 13.5462 1.31696 13.4831 1.37789C13.3059 1.52026 13.1629 1.70059 13.0647 1.90557C12.9664 2.11055 12.9154 2.33497 12.9154 2.56229C12.9154 2.7896 12.9664 3.01402 13.0647 3.21901C13.1629 3.42399 13.3059 3.60431 13.4831 3.74668C13.7814 4.01313 14.0201 4.33956 14.1835 4.70463C14.3469 5.06969 14.4314 5.46515 14.4314 5.86512C14.4314 6.26509 14.3469 6.66055 14.1835 7.02562C14.0201 7.39068 13.7814 7.71712 13.4831 7.98356C13.3593 8.10745 13.1913 8.17707 13.0161 8.17711Z" fill="#DEC377"/>
            <path d="M18.3008 8.17711C18.1702 8.17708 18.0425 8.13832 17.9339 8.06574C17.8253 7.99315 17.7406 7.88999 17.6906 7.76931C17.6407 7.64862 17.6276 7.51583 17.653 7.38771C17.6785 7.25959 17.7414 7.1419 17.8338 7.04952C18.011 6.90715 18.154 6.72682 18.2522 6.52184C18.3505 6.31686 18.4015 6.09244 18.4015 5.86512C18.4015 5.63781 18.3505 5.41339 18.2522 5.2084C18.154 5.00342 18.011 4.8231 17.8338 4.68073C17.5355 4.41428 17.2968 4.08785 17.1334 3.72278C16.97 3.35772 16.8855 2.96226 16.8855 2.56229C16.8855 2.16232 16.97 1.76686 17.1334 1.40179C17.2968 1.03673 17.5355 0.710292 17.8338 0.443851C17.8947 0.38076 17.9676 0.330436 18.0482 0.295817C18.1288 0.261197 18.2155 0.242975 18.3032 0.242212C18.3909 0.24145 18.4779 0.258164 18.559 0.291378C18.6402 0.324592 18.714 0.373641 18.776 0.435663C18.838 0.497685 18.8871 0.571439 18.9203 0.65262C18.9535 0.733801 18.9702 0.820785 18.9694 0.908494C18.9687 0.996204 18.9505 1.08288 18.9158 1.16348C18.8812 1.24407 18.8309 1.31696 18.7678 1.37789C18.5906 1.52026 18.4476 1.70059 18.3493 1.90557C18.2511 2.11055 18.2001 2.33497 18.2001 2.56229C18.2001 2.7896 18.2511 3.01402 18.3493 3.21901C18.4476 3.42399 18.5906 3.60431 18.7678 3.74668C19.0661 4.01313 19.3048 4.33956 19.4682 4.70463C19.6316 5.06969 19.7161 5.46515 19.7161 5.86512C19.7161 6.26509 19.6316 6.66055 19.4682 7.02562C19.3048 7.39068 19.0661 7.71712 18.7678 7.98356C18.644 8.10745 18.476 8.17707 18.3008 8.17711Z" fill="#DEC377"/>
            <path d="M23.5852 8.17711C23.4546 8.17708 23.3269 8.13832 23.2183 8.06574C23.1097 7.99315 23.025 7.88999 22.9751 7.76931C22.9251 7.64862 22.912 7.51583 22.9375 7.38771C22.9629 7.25959 23.0258 7.1419 23.1182 7.04952C23.2954 6.90715 23.4384 6.72682 23.5367 6.52184C23.6349 6.31686 23.6859 6.09244 23.6859 5.86512C23.6859 5.63781 23.6349 5.41339 23.5367 5.2084C23.4384 5.00342 23.2954 4.8231 23.1182 4.68073C22.8199 4.41428 22.5812 4.08785 22.4178 3.72278C22.2544 3.35772 22.1699 2.96226 22.1699 2.56229C22.1699 2.16232 22.2544 1.76686 22.4178 1.40179C22.5812 1.03673 22.8199 0.710292 23.1182 0.443851C23.1791 0.38076 23.252 0.330436 23.3326 0.295817C23.4132 0.261197 23.4999 0.242975 23.5876 0.242212C23.6753 0.24145 23.7623 0.258164 23.8435 0.291378C23.9246 0.324592 23.9984 0.373641 24.0604 0.435663C24.1224 0.497685 24.1715 0.571439 24.2047 0.65262C24.2379 0.733801 24.2546 0.820785 24.2539 0.908494C24.2531 0.996204 24.2349 1.08288 24.2003 1.16348C24.1656 1.24407 24.1153 1.31696 24.0522 1.37789C23.875 1.52026 23.732 1.70059 23.6338 1.90557C23.5355 2.11055 23.4845 2.33497 23.4845 2.56229C23.4845 2.7896 23.5355 3.01402 23.6338 3.21901C23.732 3.42399 23.875 3.60431 24.0522 3.74668C24.3505 4.01313 24.5892 4.33956 24.7526 4.70463C24.916 5.06969 25.0005 5.46515 25.0005 5.86512C25.0005 6.26509 24.916 6.66055 24.7526 7.02562C24.5892 7.39068 24.3505 7.71712 24.0522 7.98356C23.9284 8.10745 23.7604 8.17707 23.5852 8.17711Z" fill="#DEC377"/>
            </g>
            <defs>
            <clipPath id="clip0">
            <rect width="40" height="40" fill="white"/>
            </clipPath>
            </defs>
        </symbol>
        <symbol viewBox="0 0 40 40" id="icon-dollar">
            <path d="M13.5132 17.6293H23.9868C24.0689 17.6294 24.1502 17.6133 24.226 17.5819C24.3019 17.5505 24.3708 17.5044 24.4289 17.4464C24.4869 17.3884 24.5329 17.3194 24.5643 17.2436C24.5957 17.1677 24.6119 17.0864 24.6118 17.0043V15.2588C24.6118 13.7041 23.9942 12.2132 22.8949 11.1139C21.7956 10.0146 20.3046 9.39697 18.75 9.39697C17.1953 9.39697 15.7044 10.0146 14.6051 11.1139C13.5058 12.2132 12.8882 13.7041 12.8882 15.2588V17.0043C12.8881 17.0864 12.9043 17.1677 12.9357 17.2436C12.9671 17.3194 13.0131 17.3884 13.0711 17.4464C13.1292 17.5044 13.1981 17.5505 13.2739 17.5819C13.3498 17.6133 13.4311 17.6294 13.5132 17.6293ZM14.1382 15.2588C14.1382 14.0357 14.6241 12.8626 15.489 11.9977C16.3538 11.1329 17.5269 10.647 18.75 10.647C19.9731 10.647 21.1462 11.1329 22.011 11.9977C22.8759 12.8626 23.3618 14.0357 23.3618 15.2588V16.3793H14.1382V15.2588Z" fill="#DEC377"/>
            <path d="M32.7562 20.6369V16.4625H35.625C35.7154 16.4624 35.8047 16.4428 35.8868 16.4048C35.9689 16.3669 36.0418 16.3116 36.1004 16.2428C36.1591 16.174 36.2021 16.0933 36.2266 16.0063C36.251 15.9192 36.2563 15.8279 36.2421 15.7386C35.6735 13.1771 34.4754 10.7976 32.7562 8.81533V1.87502C32.7562 1.70925 32.6904 1.55028 32.5732 1.43307C32.456 1.31586 32.297 1.25002 32.1312 1.25002H26.3125C26.1467 1.25002 25.9878 1.31586 25.8706 1.43307C25.7533 1.55028 25.6875 1.70925 25.6875 1.87502V3.43877C23.5151 2.42843 21.2237 1.69672 18.8678 1.26102C18.7897 1.24633 18.7096 1.24633 18.6316 1.26102C3.24769 4.22245 1.27562 15.625 1.25794 15.7398C1.24381 15.829 1.24919 15.9202 1.2737 16.0071C1.29821 16.0941 1.34127 16.1746 1.39992 16.2433C1.45856 16.312 1.5314 16.3672 1.61342 16.405C1.69543 16.4429 1.78468 16.4625 1.875 16.4625H4.74375V31.5063H3.61875C3.53666 31.5062 3.45536 31.5223 3.37951 31.5537C3.30366 31.5851 3.23474 31.6312 3.1767 31.6892C3.11865 31.7473 3.07261 31.8162 3.04122 31.892C3.00983 31.9679 2.9937 32.0492 2.99375 32.1313V35.625C2.99375 35.7908 3.0596 35.9497 3.17681 36.067C3.29402 36.1842 3.45299 36.25 3.61875 36.25H23.0201C24.0325 37.187 25.2392 37.8888 26.5542 38.3053C27.8692 38.7219 29.26 38.8428 30.6271 38.6596C31.9943 38.4764 33.3041 37.9934 34.463 37.2453C35.6219 36.4972 36.6013 35.5024 37.3312 34.332C38.061 33.1615 38.5234 31.8443 38.6852 30.4744C38.8471 29.1046 38.7044 27.7159 38.2673 26.4076C37.8303 25.0992 37.1097 23.9036 36.157 22.906C35.2043 21.9085 34.0431 21.1337 32.7562 20.6369ZM5.36875 15.2125H2.66787C3.36875 12.779 6.54787 4.90664 18.75 2.51164C21.282 2.98334 23.7314 3.82269 26.0205 5.00308C26.1158 5.05343 26.2225 5.07828 26.3302 5.07523C26.4379 5.07218 26.543 5.04133 26.6353 4.98568C26.7276 4.93002 26.8039 4.85145 26.8568 4.75759C26.9098 4.66374 26.9376 4.55778 26.9375 4.45002V2.50002H31.5062V9.04377C31.5063 9.19235 31.5593 9.33604 31.6557 9.44908C33.1062 11.1266 34.188 13.0902 34.8312 15.2125H32.1312C32.0492 15.2125 31.9679 15.2286 31.892 15.26C31.8162 15.2914 31.7472 15.3374 31.6892 15.3955C31.6311 15.4535 31.5851 15.5224 31.5537 15.5983C31.5223 15.6741 31.5062 15.7554 31.5062 15.8375V20.2443C31.4629 20.2342 31.4182 20.231 31.375 20.2215C31.1157 20.165 30.8544 20.1198 30.5913 20.0859C30.5044 20.0746 30.4178 20.0635 30.3307 20.0546C30.0133 20.0202 29.6943 20.002 29.375 20C27.6635 19.9965 25.9847 20.4685 24.5257 21.3633C24.4734 21.2657 24.3959 21.184 24.3012 21.1267C24.2065 21.0694 24.0981 21.0387 23.9874 21.0376H18.7651C18.7598 21.0376 18.7554 21.0346 18.75 21.0346C18.7446 21.0346 18.7402 21.0375 18.7349 21.0376H13.5125C13.4304 21.0376 13.3491 21.0537 13.2733 21.0851C13.1974 21.1165 13.1285 21.1625 13.0704 21.2206C13.0124 21.2786 12.9664 21.3476 12.935 21.4234C12.9036 21.4993 12.8875 21.5805 12.8875 21.6626V31.5063H5.99375V15.8375C5.9938 15.7554 5.97766 15.6741 5.94627 15.5983C5.91488 15.5224 5.86885 15.4535 5.8108 15.3955C5.75275 15.3374 5.68383 15.2914 5.60798 15.26C5.53213 15.2286 5.45084 15.2125 5.36875 15.2125ZM22.6656 22.8415C22.5302 22.9795 22.4028 23.1228 22.2769 23.2677C22.1761 23.3839 22.0751 23.499 21.9805 23.6198C21.8622 23.7706 21.7534 23.927 21.6452 24.0843C21.5589 24.2093 21.4711 24.333 21.3913 24.462C21.2902 24.6256 21.2002 24.7947 21.1096 24.964C21.0391 25.096 20.9652 25.2257 20.9011 25.361C20.8171 25.5381 20.7461 25.7209 20.6736 25.9033C20.6197 26.0385 20.5611 26.1711 20.5134 26.3089C20.4465 26.5033 20.3947 26.703 20.3406 26.9023C20.3047 27.0346 20.2618 27.1644 20.2317 27.2987C20.1813 27.5233 20.1486 27.7528 20.1146 27.982C20.0977 28.0962 20.0721 28.2078 20.0594 28.323C20.0203 28.6723 20.0004 29.0235 20 29.375C20.0019 29.6943 20.0201 30.0132 20.0544 30.3306C20.0633 30.4177 20.0744 30.5043 20.0857 30.5912C20.12 30.8543 20.1652 31.1156 20.2213 31.3749C20.2307 31.4183 20.2338 31.463 20.2441 31.5061H19.375V22.2875H23.2446C23.1584 22.3615 23.0832 22.4446 23.0002 22.5213C22.8864 22.6265 22.7735 22.7317 22.6656 22.8415ZM14.1375 31.5063V22.2875H18.125V31.5063H14.1375ZM4.24375 35V32.7563H18.7379C18.7422 32.7563 18.7457 32.7587 18.75 32.7587C18.7543 32.7587 18.7578 32.7563 18.7621 32.7563H20.6292C20.708 32.9591 20.7939 33.1589 20.8869 33.3558C20.8912 33.3651 20.8964 33.3739 20.9008 33.3831C21.0433 33.6799 21.2012 33.969 21.3741 34.2493C21.4018 34.2947 21.4277 34.3408 21.4562 34.3858C21.5893 34.5954 21.7281 34.8013 21.8774 34.9999L4.24375 35ZM29.375 37.5C28.3078 37.5008 27.2509 37.2912 26.2647 36.8832C25.2786 36.4752 24.3826 35.8767 23.6279 35.1221C22.8733 34.3675 22.2748 33.4714 21.8668 32.4853C21.4588 31.4991 21.2492 30.4422 21.25 29.375C21.2499 29.0625 21.2675 28.7502 21.3027 28.4396C21.5364 26.4615 22.4868 24.6375 23.9743 23.3127C25.4617 21.9879 27.3831 21.254 29.375 21.25C29.5931 21.25 29.8103 21.2586 30.0267 21.2759C32.1191 21.4433 34.0655 22.414 35.4581 23.9845C36.8507 25.5551 37.5815 27.6037 37.4972 29.7011C37.413 31.7985 36.5203 33.7819 35.0062 35.2357C33.4921 36.6896 31.4741 37.501 29.375 37.5Z" fill="#DEC377"/>
            <path d="M30.1086 28.9948H28.8861C28.533 28.9948 28.1943 28.8545 27.9446 28.6048C27.6949 28.3551 27.5546 28.0164 27.5546 27.6633C27.5546 27.3102 27.6949 26.9715 27.9446 26.7218C28.1943 26.4721 28.533 26.3318 28.8861 26.3318H31.3318C31.4975 26.3318 31.6565 26.266 31.7737 26.1488C31.8909 26.0315 31.9568 25.8726 31.9568 25.7068C31.9568 25.5411 31.8909 25.3821 31.7737 25.2649C31.6565 25.1477 31.4975 25.0818 31.3318 25.0818H30V23.75C30 23.5842 29.9341 23.4253 29.8169 23.3081C29.6997 23.1908 29.5407 23.125 29.375 23.125C29.2092 23.125 29.0502 23.1908 28.933 23.3081C28.8158 23.4253 28.75 23.5842 28.75 23.75V25.0956C28.0784 25.1296 27.4467 25.4249 26.9899 25.9184C26.5331 26.4119 26.2873 27.0644 26.3051 27.7366C26.3229 28.4088 26.6028 29.0474 27.085 29.5161C27.5673 29.9847 28.2136 30.2462 28.8861 30.2448H30.1086C30.252 30.2437 30.3942 30.271 30.527 30.3251C30.6598 30.3792 30.7806 30.4591 30.8824 30.5601C30.9842 30.6611 31.0649 30.7813 31.1201 30.9137C31.1752 31.0461 31.2036 31.1881 31.2036 31.3315C31.2036 31.4749 31.1752 31.6169 31.1201 31.7493C31.0649 31.8816 30.9842 32.0018 30.8824 32.1028C30.7806 32.2038 30.6598 32.2837 30.527 32.3378C30.3942 32.392 30.252 32.4193 30.1086 32.4182H27.4182C27.2524 32.4182 27.0934 32.484 26.9762 32.6012C26.859 32.7185 26.7932 32.8774 26.7932 33.0432C26.7932 33.2089 26.859 33.3679 26.9762 33.4851C27.0934 33.6023 27.2524 33.6682 27.4182 33.6682H28.75V35C28.75 35.1658 28.8158 35.3247 28.933 35.4419C29.0502 35.5592 29.2092 35.625 29.375 35.625C29.5407 35.625 29.6997 35.5592 29.8169 35.4419C29.9341 35.3247 30 35.1658 30 35V33.6682H30.1086C30.4165 33.6698 30.7216 33.6105 31.0065 33.4938C31.2914 33.3771 31.5505 33.2052 31.7687 32.9881C31.987 32.7709 32.1602 32.5128 32.2784 32.2285C32.3966 31.9442 32.4574 31.6394 32.4574 31.3315C32.4574 31.0236 32.3966 30.7187 32.2784 30.4344C32.1602 30.1501 31.987 29.892 31.7687 29.6749C31.5505 29.4577 31.2914 29.2859 31.0065 29.1691C30.7216 29.0524 30.4165 28.9932 30.1086 28.9948Z" fill="#DEC377"/>
        </symbol>
        
    </defs>
</svg>